<svg width="12" height="12" viewBox="0 0 12 12" fill="none" xmlns="http://www.w3.org/2000/svg">
<g clip-path="url(#clip0)">
<path d="M0.169971 1.00123C-0.0550293 0.77623 -0.0550293 0.401755 0.169971 0.168887C0.402838 -0.0561127 0.769446 -0.0561127 1.00231 0.168887L5.99689 5.17186L10.9999 0.168887C11.2249 -0.0561127 11.5993 -0.0561127 11.8238 0.168887C12.0567 0.401755 12.0567 0.776755 11.8238 1.00123L6.82924 5.99634L11.8238 10.9993C12.0567 11.2243 12.0567 11.5988 11.8238 11.8317C11.5988 12.0567 11.2243 12.0567 10.9999 11.8317L5.99689 6.82868L1.00231 11.8317C0.769446 12.0567 0.402838 12.0567 0.169971 11.8317C-0.0550293 11.5988 -0.0550293 11.2238 0.169971 10.9993L5.16455 5.99634L0.169971 1.00123Z" fill="white"/>
</g>
<defs>
<clipPath id="clip0">
<rect width="12" height="12" fill="white"/>
</clipPath>
</defs>
</svg>
