<svg width="20" height="20" viewBox="0 0 20 20" fill="none" xmlns="http://www.w3.org/2000/svg">
<path d="M14.375 6.25C14.7167 6.25 15 6.53333 15 6.875C15 7.21667 14.7167 7.5 14.375 7.5H13.75V6.25H14.375Z" fill="white"/>
<path d="M14.375 7.5C14.7167 7.5 15 7.21667 15 6.875V7.70833C15 8.05 14.7167 8.33333 14.375 8.33333C14.0333 8.33333 13.75 8.05 13.75 7.70833V7.5H14.375Z" fill="white"/>
<path d="M1.25 6.25H13.75V7.5H1.25V6.25Z" fill="white"/>
<path d="M15 11.25C14.2333 11.25 13.5333 11.4667 12.9417 11.875H12.0833V10.9667C12.75 10.4583 13.5417 10.1417 14.3917 10.0333C14.5917 10.0083 14.7917 10 15 10C17.7583 10 20 12.2417 20 15C20 17.7583 17.7583 20 15 20C13.275 20 11.75 19.125 10.8583 17.8C10.3167 17 10 16.0333 10 15C10 14.6583 10.2833 14.375 10.625 14.375C10.9667 14.375 11.25 14.6583 11.25 15C11.25 17.0667 12.9333 18.75 15 18.75C17.0667 18.75 18.75 17.0667 18.75 15C18.75 12.9333 17.0667 11.25 15 11.25Z" fill="white"/>
<path d="M13.9083 12.5C13.9083 12.8417 13.6333 13.125 13.2833 13.125H11.4583C11.6583 13.125 11.85 13.0333 11.975 12.8583C12.25 12.4583 12.575 12.1333 12.9417 11.875H13.2833C13.6333 11.875 13.9083 12.1583 13.9083 12.5Z" fill="white"/>
<path d="M11.4583 10C11.8 10 12.0833 10.2833 12.0833 10.625V10.9667C11.65 11.2833 11.2667 11.675 10.9417 12.1417C10.8667 12.25 10.8333 12.375 10.8333 12.5V10.625C10.8333 10.2833 11.1167 10 11.4583 10Z" fill="white"/>
<path d="M12.9417 11.875C12.575 12.1333 12.25 12.4583 11.975 12.8583C11.85 13.0333 11.6583 13.125 11.4583 13.125C11.4 13.125 11.35 13.1167 11.3 13.1C11.275 13.1 11.2583 13.0917 11.2333 13.0833C11.075 13.0167 10.9417 12.8917 10.8833 12.7333C10.8667 12.7 10.85 12.6667 10.85 12.625C10.8417 12.5833 10.8333 12.5417 10.8333 12.5C10.8333 12.375 10.8667 12.25 10.9417 12.1417C11.2667 11.675 11.65 11.2833 12.0833 10.9667V11.875H12.9417Z" fill="white"/>
<path d="M11.3 13.1007C11.275 13.1007 11.2583 13.092 11.2333 13.0833C11.2583 13.092 11.275 13.1007 11.3 13.1007Z" fill="white"/>
<path d="M10.8333 5.00001C11.2936 5.00001 11.6667 4.62691 11.6667 4.16668C11.6667 3.70644 11.2936 3.33334 10.8333 3.33334C10.3731 3.33334 10 3.70644 10 4.16668C10 4.62691 10.3731 5.00001 10.8333 5.00001Z" fill="white"/>
<path d="M10.85 12.625C10.85 12.6667 10.8667 12.7 10.8833 12.7333C10.8667 12.7 10.85 12.6583 10.85 12.625Z" fill="white"/>
<path d="M8.54167 12.5C8.88333 12.5 9.16667 12.7833 9.16667 13.125C9.16667 13.4667 8.88333 13.75 8.54167 13.75H1.25V12.5H8.54167Z" fill="white"/>
<path d="M7.5 5.00001C7.96024 5.00001 8.33334 4.62691 8.33334 4.16668C8.33334 3.70644 7.96024 3.33334 7.5 3.33334C7.03977 3.33334 6.66667 3.70644 6.66667 4.16668C6.66667 4.62691 7.03977 5.00001 7.5 5.00001Z" fill="white"/>
<path d="M4.16668 5.00001C4.62691 5.00001 5.00001 4.62691 5.00001 4.16668C5.00001 3.70644 4.62691 3.33334 4.16668 3.33334C3.70644 3.33334 3.33334 3.70644 3.33334 4.16668C3.33334 4.62691 3.70644 5.00001 4.16668 5.00001Z" fill="white"/>
<path d="M1.25001 12.5V13.75H1.04167C0.700005 13.75 0.416672 13.4667 0.416672 13.125C0.416672 12.7833 0.700005 12.5 1.04167 12.5H1.25001Z" fill="white"/>
<path d="M1.25 6.25V7.5H0.625C0.283333 7.5 0 7.21667 0 6.875C0 6.53333 0.283333 6.25 0.625 6.25H1.25Z" fill="white"/>
<path d="M12.7083 1.25H2.29167C1.71667 1.25 1.25 1.71667 1.25 2.29167V6.25H0.625C0.283333 6.25 0 6.53333 0 6.875V2.29167C0 1.025 1.025 0 2.29167 0H12.7083C13.975 0 15 1.025 15 2.29167V6.875C15 6.53333 14.7167 6.25 14.375 6.25H13.75V2.29167C13.75 1.71667 13.2833 1.25 12.7083 1.25Z" fill="white"/>
<path d="M9.375 18.75C9.71667 18.75 10 19.0333 10 19.375C10 19.7167 9.71667 20 9.375 20H2.29167C1.025 20 0 18.975 0 17.7083V6.875C0 7.21667 0.283333 7.5 0.625 7.5H1.25V12.5H1.04167C0.7 12.5 0.416667 12.7833 0.416667 13.125C0.416667 13.4667 0.7 13.75 1.04167 13.75H1.25V17.7083C1.25 18.2833 1.71667 18.75 2.29167 18.75H9.375Z" fill="white"/>
</svg>
