<svg width="14" height="14" viewBox="0 0 14 14" fill="none" xmlns="http://www.w3.org/2000/svg">
<g clip-path="url(#clip0)">
<path d="M7 4.11523C5.86925 4.11523 4.94922 3.1952 4.94922 2.06445C4.94922 0.933707 5.86925 0.0136719 7 0.0136719C8.13075 0.0136719 9.05078 0.933707 9.05078 2.06445C9.05078 3.1952 8.13075 4.11523 7 4.11523Z" fill="white"/>
<path d="M0.274112 11.7305C-0.291056 10.7512 0.0457914 9.49462 1.02514 8.92907C2.02458 8.35253 3.26959 8.71562 3.82653 9.67968C4.39315 10.6605 4.05731 11.9141 3.07592 12.4811C2.09264 13.0481 0.840374 12.7107 0.274112 11.7305Z" fill="white"/>
<path d="M10.9241 12.4811C9.94332 11.9145 9.6065 10.6611 10.1734 9.67969C10.7304 8.71566 11.9753 8.35251 12.9748 8.92908C13.9542 9.49465 14.291 10.7512 13.7259 11.7305C13.1603 12.7094 11.9087 13.0489 10.9241 12.4811Z" fill="white"/>
<path d="M1.67598 7.53557L0.857285 7.4907C0.963816 5.55047 2.00044 3.75442 3.62983 2.68578L4.08005 3.3715C2.66733 4.29799 1.7689 5.85489 1.67598 7.53557Z" fill="white"/>
<path d="M12.324 7.53558C12.2311 5.85489 11.3327 4.29799 9.91995 3.37153L10.3702 2.68581C11.9996 3.75445 13.0362 5.5505 13.1427 7.49073L12.324 7.53558Z" fill="white"/>
<path d="M7.00001 13.9863C6.02427 13.9863 5.09141 13.7644 4.22664 13.3274L4.59674 12.5952C6.09476 13.3531 7.90522 13.3531 9.40325 12.5952L9.77334 13.3274C8.9086 13.7644 7.97574 13.9863 7.00001 13.9863Z" fill="white"/>
</g>
<defs>
<clipPath id="clip0">
<rect width="14" height="14" fill="white"/>
</clipPath>
</defs>
</svg>
