<svg width="20" height="20" viewBox="0 0 20 20" fill="none" xmlns="http://www.w3.org/2000/svg">
<g clip-path="url(#clip0)">
<path d="M9.99998 6.7199C9.8566 6.7199 9.71324 6.77464 9.60393 6.8839L6.16411 10.3238C5.9453 10.5426 5.9453 10.8973 6.16411 11.1161C6.38284 11.3348 6.73755 11.3348 6.95638 11.1161L9.99998 8.0723L13.0436 11.116C13.2624 11.3347 13.6171 11.3347 13.8358 11.116C14.0547 10.8972 14.0547 10.5425 13.8358 10.3236L10.396 6.88379C10.2867 6.77452 10.1433 6.7199 9.99998 6.7199Z" fill="white"/>
</g>
<path d="M10 0C4.48578 0 0 4.48578 0 10C0 15.5142 4.48578 20 10 20C15.5142 20 20 15.5142 20 10C20 4.48578 15.5142 0 10 0ZM10 18.75C5.17502 18.75 1.25 14.825 1.25 10C1.25 5.17502 5.17502 1.25 10 1.25C14.825 1.25 18.75 5.17502 18.75 10C18.75 14.825 14.825 18.75 10 18.75Z" fill="white"/>
<defs>
<clipPath id="clip0">
<rect width="8" height="8" fill="white" transform="matrix(1 0 0 -1 6 14)"/>
</clipPath>
</defs>
</svg>
